/* XPM */
static char *a15d0161e0ec4321c8961c3712ea4da88Fd1QvfxW5CcMYKP[] = {
/* columns rows colors chars-per-pixel */
"32 32 13 1 ",
"  c None",
". c black",
"X c #383818",
"o c #484858",
"O c #784040",
"+ c #787040",
"@ c #904028",
"# c #E07050",
"$ c #D89870",
"% c #C8B068",
"& c #F8D8B8",
"* c #C0C8D8",
"= c #FFFDFD",
/* pixels */
"                                ",
"                                ",
"                                ",
"                                ",
"                                ",
"            o                   ",
"           o=ooooo              ",
"          oo*=*===oo            ",
"         o****=====*o           ",
"          o**=======*o          ",
"          X*=*======*X          ",
"         Xo**=**===**oX         ",
"         Xoo********ooX         ",
"         .oo*o****o*oo.         ",
"         .$oooo**oooo$.         ",
"          ..oooooooo..          ",
"          .$..oooo..$.          ",
"           O$$$$$$$$O           ",
"          .#.O++++O.#.          ",
"         O%oo%oooo%oo%O         ",
"         O%%.o&&&&o.%%O         ",
"          O..+&&&&+..O          ",
"           Xo%++++%oX           ",
"           ..o%%%%o..           ",
"           .@@....@@.           ",
"            ..    ..            ",
"                                ",
"                                ",
"                                ",
"                                ",
"                                ",
"                                "
};
