/* XPM */
static char *e5e121aec4f74fc2e00fbff5935b17a7Ai8XoWbiRnvTS5Wb[] = {
/* columns rows colors chars-per-pixel */
"32 32 3 1 ",
"  c #40B088",
". c #70C8A0",
"X c #88D8B8",
/* pixels */
"................................",
"................................",
"................................",
"................................",
"................................",
"................................",
"................................",
"................................",
"................................",
"................................",
"............  ..................",
"............  ..................",
"......  ....  ....  ............",
"......  ....  ....  ............",
"........  ......  ..............",
"........  ......  ..............",
"................................",
"................................",
"....................XX..........",
"....................XX..........",
"..............XX....XX....XX....",
"..............XX....XX....XX....",
"................XX......XX......",
"................XX......XX......",
"................................",
"................................",
"................................",
"................................",
"................................",
"................................",
"................................",
"................................"
};
