/* XPM */
static char *_b7d8f27ef4a4de5945039e76816c28cibhqMBD7qiJ5FwG2[] = {
/* columns rows colors chars-per-pixel */
"32 32 14 1 ",
"  c None",
". c black",
"X c #383818",
"o c #501000",
"O c #484858",
"+ c #784040",
"@ c #904028",
"# c #E07050",
"$ c #D89870",
"% c #C8B068",
"& c #F0C098",
"* c #F8D8B8",
"= c #C0C8D8",
"- c #FFFDFD",
/* pixels */
"                                ",
"                                ",
"                                ",
"                                ",
"                                ",
"                   O            ",
"              OOOOO-O           ",
"            OO---=-=OO          ",
"           O=-----====O         ",
"          O=-------==O          ",
"          X=------=-=X          ",
"         XO==---==-==OX         ",
"         XOO========OOX         ",
"         .OOOO#OO#OOOO.         ",
"         .$.OOO##OOO.$.         ",
"          .+.OOOOOO.+.          ",
"          .$$&.**.&$$.          ",
"           +$$+&&+$$+           ",
"          .#.+$$$$+.#.          ",
"         +%OO......OO%+         ",
"         +%%.OO##OO.%%+         ",
"          +..#OOOO#..+          ",
"           XO@####@OX           ",
"           ..OOooOO..           ",
"           .@@.  .@@.           ",
"            ..    ..            ",
"                                ",
"                                ",
"                                ",
"                                ",
"                                ",
"                                "
};
