/* XPM */
static char *edb39af5aab0468afddd6d13d9f80018MybsJZJkhTLA3ynZ[] = {
/* columns rows colors chars-per-pixel */
"41 41 14 1 ",
"  c None",
". c #292829",
"X c #73717B",
"o c #9C1800",
"O c #B52C18",
"+ c #8C5921",
"@ c #D64529",
"# c #F7694A",
"$ c #C6A629",
"% c #EFD35A",
"& c #FFF77B",
"* c #CECBD6",
"= c #EFEFF7",
"- c white",
/* pixels */
"                                         ",
"                                         ",
"                                         ",
"                                         ",
"                                         ",
"                                         ",
"                                         ",
"                                         ",
"                                         ",
"                                         ",
"                        ....             ",
"                       .%&&%.            ",
"                      .@@@%%$.           ",
"                     .%&%%@$$.           ",
"                    .%&%..%o$.           ",
"               .....%&%%..%o$.           ",
"             ..=====XX..%$$o.            ",
"            .========*X.%$$.             ",
"           .o@@@o=====*X$$.              ",
"           .#--#@oo===*X$.               ",
"          .@#--#@@@o==**.                ",
"          .@@##@@@@@o=**.                ",
"          .@@#@@@@@@o***.                ",
"          .@ooo@@@@@Oo**.                ",
"          o$&%%o@@@@Oo**.                ",
"          .%%%$$o@@OOo*.                 ",
"         .$..$$$oOOOOo*.                 ",
"         .+...$$oOOOOo.                  ",
"         .++..$+OOOO..                   ",
"          .+++......                     ",
"           ...                           ",
"                                         ",
"                                         ",
"                                         ",
"                                         ",
"                                         ",
"                                         ",
"                                         ",
"                                         ",
"                                         ",
"                                         "
};
