/* XPM */
static char *_fefcefa76c54e35913410be41272c302zziXkm89mzUzSkF[] = {
/* columns rows colors chars-per-pixel */
"32 32 16 1 ",
"  c None",
". c black",
"X c #383818",
"o c #501000",
"O c #484858",
"+ c #784040",
"@ c #787040",
"# c #904028",
"$ c #E07050",
"% c #D89870",
"& c #C8B068",
"* c #889090",
"= c #F0C098",
"- c #F8D8B8",
"; c #C0C8D8",
": c #FFFDFD",
/* pixels */
"                                ",
"                                ",
"                                ",
"                                ",
"                                ",
"              O                 ",
"             O:OO               ",
"             O::;OO             ",
"            O;;;:::OO           ",
"           O;;:::::::O          ",
"           O;;::::::::.         ",
"          O;;:;::::::*.         ",
"         O;;;;:;;::$OO#         ",
"          O*;;;*OOOO$$.         ",
"           X;;OOOOOOOO.         ",
"           .OOOOOOOOO-+         ",
"           .OO%=X%%.--+         ",
"            .O%=%%=+=+          ",
"            .&XX%%%%+           ",
"           .--&o..++.           ",
"           .@-&.$$o$.           ",
"           .&@@.##oO.           ",
"            .&&.&&..            ",
"             ..O..OX            ",
"               .&##.            ",
"                ...             ",
"                                ",
"                                ",
"                                ",
"                                ",
"                                ",
"                                "
};
