/* XPM */
static char *_2446ea9d0ad43d2c3641b2c265b88b2db4VpJjaVK6lh188[] = {
/* columns rows colors chars-per-pixel */
"32 30 9 1 ",
"  c None",
". c black",
"X c #423A63",
"o c #846300",
"O c #D6AD21",
"+ c #FFDE4A",
"@ c #6B52BD",
"# c #A58CEF",
"$ c white",
/* pixels */
"       XXXX          XXXX       ",
"       XXXX          XXXX       ",
"     XX##@@@XXXXXXXX@@@##XX     ",
"     XX##################XX     ",
"     XX@#++++++##++++++#@XX     ",
"     XX@#++++++##++++++#@XX     ",
"     XX#++++++++++++++++#XX     ",
"    X@@#+oo..++++++..oo+#@@X    ",
"    X##++++++++++++++++++##X    ",
"    X##++++++++++++++++++##X    ",
"    X##++++++oooooo++++++##X    ",
"    X##++++++++++++++++++##X    ",
"    X@@#+++OOOOOOOOOO+++#@@X    ",
"    X@@#+++OOOOOOOOOO+++#@@X    ",
"    X@@@@OO++++++++++OO@@@@X    ",
"   X####$@@++++++++++@@$####X   ",
" XX######@@++++++++++@@######XX ",
" XX######@@++++++++++@@######XX ",
" XX#####$@@++++++++++@@$#####XX ",
" XX@###$@++++++++++++++@$###@XX ",
"   XXXX@OOOO++++++++OOOO@XXXX   ",
"   XXXX@OOOO++++++++OOOO@XXXX   ",
" XXO$++oOOOOOOOOOOOOOOOOo++$OXX ",
"X$$+++++o@@OOOOOOOOOO@@o+++++$$X",
"XOO+ooo+o@@@@@@@@@@@@@@o+ooo+OOX",
"XOO+ooo+o@@@@@@@@@@@@@@o+ooo+OOX",
"X$$+oooOo@@@@@@@@@@@@@@oOooo+$$X",
" ..OOOOo...@@@@@@@@@@...oOOOO.. ",
"   .....   ..........   .....   ",
"   .....   ..........   .....   "
};
