/* XPM */
static char *_b7cacadce3048a7e3d8b719901ce4a3aAHL3wITZfw3NmbT[] = {
/* columns rows colors chars-per-pixel */
"16 16 9 1 ",
"  c None",
". c black",
"X c #484838",
"o c #684028",
"O c #787058",
"+ c #907048",
"@ c #A07858",
"# c #C8A878",
"$ c #F8E8A0",
/* pixels */
"    XX$$XXXX    ",
"  XXX$#XXXXXXX  ",
" XXXo#.X.X.X.XX ",
"XXX.o+#.X.X.X++X",
"XX..o#@$....+$$X",
"X...o#.@$...$#.X",
"X...o#..+$.+$..X",
"X...o@#..@#o$..X",
"X...o@@#..@o#..X",
"X...o@.@#..o#..X",
"X....o..@#.o#..O",
"X....o@..+#o#..O",
"XX....oo..+o#..X",
" XX....oo..oo.XO",
"  XXX...oo.o.XO ",
"    XXXXXXXXXO  "
};
