/* XPM */
static char *_0cf950501c14017fc5d87e91077ffd3KUBM5vbpRqQulkXz[] = {
/* columns rows colors chars-per-pixel */
"32 32 7 1 ",
"  c #204010",
". c #505020",
"X c #784040",
"o c #388800",
"O c #A08020",
"+ c #80C830",
"@ c #70C0A0",
/* pixels */
"@@@@@@@@@@@@@@@@@@@@@@      @@@@",
"@@@@@@@@@@@@@@@@@@@@@@      @@@@",
"@@@@@@@@@@@@@@@@@@    oooo++  @@",
"@@@@@@@@@@@@@@@@@@    oooo++  @@",
"@@@@      @@@@@@  oooooo++++++  ",
"@@@@      @@@@@@  oooooo++++++  ",
"@@  ++++oo    @@    oooo++++++  ",
"@@  ++++oo    @@    oooo++++++  ",
"  ++++oooooo        oooooo++oo  ",
"  ++++oooooo        oooooo++oo  ",
"  ++oo++oo        oo  oooooo  @@",
"  ++oo++oo        oo  oooooo  @@",
"@@  oooooo              oooooo  ",
"@@  oooooo              oooooo  ",
"  oooooo          ....        @@",
"  oooooo          ....        @@",
"          ....  ....  @@@@@@@@@@",
"          ....  ....  @@@@@@@@@@",
"@@          ..  ..  @@@@@@@@@@@@",
"@@          ..  ..  @@@@@@@@@@@@",
"@@@@@@    @@  OO..  @@@@@@@@@@@@",
"@@@@@@    @@  OO..  @@@@@@@@@@@@",
"@@@@@@@@@@@@  OO..  @@@@@@@@@@@@",
"@@@@@@@@@@@@  OO..  @@@@@@@@@@@@",
"@@@@@@@@oo    ..OO..  oo@@@@@@@@",
"@@@@@@@@oo    ..OO..  oo@@@@@@@@",
"@@@@@@oo  XXOO..OOOO..  oo@@@@@@",
"@@@@@@oo  XXOO..OOOO..  oo@@@@@@",
"@@@@@@oo    XXOO..OO    oo@@@@@@",
"@@@@@@oo    XXOO..OO    oo@@@@@@",
"@@@@@@@@oo            oo@@@@@@@@",
"@@@@@@@@oo            oo@@@@@@@@"
};
